<?xml version="1.0" encoding="utf-8"?>
<svg xmlns="http://www.w3.org/2000/svg" height="512pt" version="1.1" viewBox="0 0 512 512" width="512pt">
<path d="M 0.00 0.00 L 512.00 0.00 L 512.00 512.00 L 0.00 512.00 L 0.00 0.00 Z" fill="#f189a0" opacity="1.00" stroke="#f189a0" stroke-width="0.25"/>
<path d="M 197.26 110.07 C 221.94 98.45 249.78 93.91 276.90 96.81 C 290.76 98.66 304.46 101.73 317.61 106.54 C 332.24 112.28 346.20 119.71 358.97 128.93 C 363.60 131.85 367.07 136.16 371.11 139.79 C 378.68 145.92 384.71 153.66 390.62 161.35 C 395.73 167.83 399.55 175.19 403.51 182.40 C 405.86 185.82 407.11 189.78 408.52 193.64 C 413.84 206.62 416.90 220.36 419.81 234.02 C 422.31 247.83 421.64 261.97 421.44 275.91 C 416.85 284.73 409.91 291.97 403.38 299.35 C 396.28 307.22 387.75 313.57 379.53 320.17 C 378.31 320.78 377.04 320.98 375.71 320.77 C 373.73 318.59 372.20 316.04 370.09 313.98 C 362.60 306.46 355.06 299.00 347.53 291.52 C 343.74 287.77 340.03 283.91 335.84 280.60 C 328.47 274.00 321.30 267.13 313.46 261.09 C 313.28 256.72 313.45 252.34 313.37 247.97 C 312.76 237.69 309.66 227.75 305.36 218.45 C 305.13 218.86 304.91 219.28 304.69 219.70 C 304.05 215.59 300.81 212.59 298.51 209.32 C 294.03 204.45 289.18 199.64 283.11 196.78 C 276.50 193.03 269.25 190.23 261.69 189.17 C 261.67 187.05 259.40 186.16 258.20 184.74 C 248.16 174.14 237.59 164.05 227.50 153.50 C 214.85 140.69 202.76 127.36 190.45 114.23 C 191.81 111.69 194.92 111.32 197.26 110.07 Z" fill="#f45752" opacity="1.00" stroke="#f45752" stroke-width="0.25"/>
<path d="M 188.07 114.31 C 188.67 114.29 189.86 114.25 190.45 114.23 C 202.76 127.36 214.85 140.69 227.50 153.50 C 237.59 164.05 248.16 174.14 258.20 184.74 C 259.40 186.16 261.67 187.05 261.69 189.17 C 260.30 188.64 258.96 188.03 257.70 187.26 C 245.87 174.44 233.09 162.52 221.12 149.83 C 214.85 143.77 208.79 137.51 202.55 131.41 C 197.96 126.85 193.95 121.73 189.40 117.12 C 188.59 116.38 188.37 115.31 188.07 114.31 Z" fill="#fafcfd" opacity="1.00" stroke="#fafcfd" stroke-width="0.25"/>
<path d="M 178.96 120.63 C 182.03 118.97 184.68 116.32 188.34 116.07 C 188.61 116.73 189.14 118.05 189.41 118.71 C 189.40 118.31 189.40 117.52 189.40 117.12 C 193.95 121.73 197.96 126.85 202.55 131.41 C 208.79 137.51 214.85 143.77 221.12 149.83 C 233.09 162.52 245.87 174.44 257.70 187.26 C 255.60 188.50 253.25 188.39 250.94 188.06 C 242.50 189.84 233.88 191.72 226.49 196.43 C 221.36 198.39 217.67 202.44 213.84 206.18 C 205.61 206.33 200.37 214.81 200.62 222.38 C 200.49 228.35 197.76 233.86 196.42 239.62 C 187.63 239.75 178.84 239.88 170.05 239.56 C 166.34 239.52 162.93 237.95 159.42 236.97 C 144.62 233.64 130.50 226.07 120.52 214.51 C 118.59 212.28 117.21 209.39 114.35 208.20 C 113.68 207.16 113.02 206.11 112.37 205.06 C 113.43 202.04 114.45 199.01 115.36 195.94 C 120.70 185.59 125.87 175.06 132.63 165.51 C 139.44 157.22 145.17 147.75 153.71 141.09 C 161.13 133.12 169.79 126.45 178.96 120.63 Z" fill="#1cb1f9" opacity="1.00" stroke="#1cb1f9" stroke-width="0.25"/>
<path d="M 166.32 143.00 C 171.39 134.32 186.83 135.61 189.63 145.62 C 197.11 146.52 204.70 146.68 212.04 148.51 C 206.02 148.59 200.01 148.69 194.01 149.28 C 184.93 149.30 175.84 149.45 166.76 149.38 C 164.35 148.22 165.42 144.91 166.32 143.00 Z" fill="#fafcfd" opacity="1.00" stroke="#fafcfd" stroke-width="0.25"/>
<path d="M 298.14 154.58 C 301.66 151.04 306.84 148.84 311.83 150.29 C 319.75 151.92 326.22 160.40 323.52 168.51 C 309.24 168.89 294.91 168.75 280.63 168.51 C 279.35 161.78 283.96 155.42 289.98 152.90 C 292.77 151.93 295.84 152.83 298.14 154.58 Z" fill="#fafcfd" opacity="1.00" stroke="#fafcfd" stroke-width="0.25"/>
<path d="M 360.23 152.15 C 361.88 151.69 362.43 152.26 361.89 153.87 C 360.24 154.33 359.69 153.75 360.23 152.15 Z" fill="#f189a0" opacity="1.00" stroke="#f189a0" stroke-width="0.25"/>
<path d="M 164.46 175.87 C 166.07 173.91 167.80 172.05 169.73 170.40 C 174.23 169.99 178.76 169.95 183.26 170.42 C 185.76 172.17 187.34 174.78 189.34 177.01 C 189.94 182.00 190.42 187.66 186.89 191.75 C 185.30 192.98 183.76 194.31 182.02 195.33 C 177.13 196.14 171.11 196.68 167.49 192.55 C 162.52 188.52 164.20 181.42 164.46 175.87 Z" fill="#f45752" opacity="1.00" stroke="#f45752" stroke-width="0.25"/>
<path d="M 172.45 181.41 C 172.86 180.46 173.36 179.54 173.97 178.70 C 174.64 179.56 175.21 180.50 175.64 181.51 C 174.57 181.48 173.51 181.45 172.45 181.41 Z" fill="#fafcfd" opacity="1.00" stroke="#fafcfd" stroke-width="0.25"/>
<path d="M 226.49 196.43 C 233.88 191.72 242.50 189.84 250.94 188.06 C 253.25 188.39 255.60 188.50 257.70 187.26 C 258.96 188.03 260.30 188.64 261.69 189.17 C 269.25 190.23 276.50 193.03 283.11 196.78 C 289.18 199.64 294.03 204.45 298.51 209.32 C 300.81 212.59 304.05 215.59 304.69 219.70 C 304.91 219.28 305.13 218.86 305.36 218.45 C 309.66 227.75 312.76 237.69 313.37 247.97 C 313.45 252.34 313.28 256.72 313.46 261.09 C 321.30 267.13 328.47 274.00 335.84 280.60 C 327.23 280.55 318.63 280.69 310.03 280.55 C 308.17 280.54 306.27 280.49 304.51 281.14 C 302.33 280.97 300.16 280.80 297.98 280.77 C 266.63 280.79 235.29 280.90 203.94 280.73 C 200.23 272.92 197.97 264.44 196.96 255.86 C 195.89 250.85 197.08 245.70 196.24 240.68 C 193.15 240.10 190.12 241.58 187.01 241.49 C 169.84 241.91 152.28 238.32 137.30 229.68 C 128.15 224.41 119.87 217.28 114.35 208.20 C 117.21 209.39 118.59 212.28 120.52 214.51 C 130.50 226.07 144.62 233.64 159.42 236.97 C 162.93 237.95 166.34 239.52 170.05 239.56 C 178.84 239.88 187.63 239.75 196.42 239.62 C 197.76 233.86 200.49 228.35 200.62 222.38 C 215.57 222.31 230.51 222.22 245.46 222.41 C 247.09 216.21 241.25 209.86 235.00 210.54 C 231.63 210.28 229.16 212.82 226.82 214.84 C 224.32 209.88 219.31 206.72 213.84 206.18 C 217.67 202.44 221.36 198.39 226.49 196.43 Z" fill="#15bf7c" opacity="1.00" stroke="#15bf7c" stroke-width="0.25"/>
<path d="M 111.09 202.02 C 112.42 199.93 113.64 197.74 115.36 195.94 C 114.45 199.01 113.43 202.04 112.37 205.06 C 112.17 204.74 111.76 204.10 111.56 203.78 C 108.31 211.56 106.77 219.91 105.19 228.16 C 103.47 235.30 103.22 242.68 102.64 249.98 C 102.27 272.73 109.57 294.95 119.86 315.01 C 129.44 332.64 141.93 348.74 156.97 362.06 C 178.15 380.53 203.45 394.66 230.85 401.30 C 256.06 407.62 282.70 407.56 308.04 401.98 C 320.03 399.47 331.65 395.37 342.92 390.64 C 352.22 386.68 360.01 380.15 367.87 373.97 C 372.07 370.22 375.65 365.83 379.96 362.20 C 377.14 367.98 372.37 372.41 368.35 377.31 C 354.04 392.13 337.26 404.48 319.08 414.13 C 314.02 416.74 309.46 420.69 303.63 421.42 C 276.83 425.09 249.22 424.59 222.90 418.06 C 188.97 409.51 159.16 388.81 135.93 363.06 C 127.98 353.85 120.15 344.43 114.30 333.70 C 105.75 320.04 100.43 304.63 97.00 288.96 C 93.17 271.24 93.26 252.68 97.11 234.97 C 99.68 223.20 105.28 212.45 111.09 202.02 Z" fill="#a83e6a" opacity="1.00" stroke="#a83e6a" stroke-width="0.25"/>
<path d="M 378.33 202.33 C 379.43 202.33 380.54 202.33 381.65 202.33 C 381.63 203.41 381.61 204.49 381.60 205.57 C 380.52 205.58 379.46 205.59 378.39 205.61 C 378.37 204.51 378.34 203.42 378.33 202.33 Z" fill="#1cb1f9" opacity="1.00" stroke="#1cb1f9" stroke-width="0.25"/>
<path d="M 105.19 228.16 C 106.77 219.91 108.31 211.56 111.56 203.78 C 111.76 204.10 112.17 204.74 112.37 205.06 C 113.02 206.11 113.68 207.16 114.35 208.20 C 119.87 217.28 128.15 224.41 137.30 229.68 C 152.28 238.32 169.84 241.91 187.01 241.49 C 190.12 241.58 193.15 240.10 196.24 240.68 C 197.08 245.70 195.89 250.85 196.96 255.86 C 197.97 264.44 200.23 272.92 203.94 280.73 C 208.27 290.67 215.34 299.12 223.46 306.19 C 235.06 317.50 249.35 325.73 264.42 331.49 C 290.40 340.15 318.85 341.77 345.46 334.98 C 355.21 332.47 364.32 328.12 373.41 323.89 C 374.59 323.56 375.38 322.59 376.23 321.78 C 377.32 321.24 378.44 320.74 379.53 320.17 C 387.75 313.57 396.28 307.22 403.38 299.35 C 409.91 291.97 416.85 284.73 421.44 275.91 C 422.59 276.97 422.54 278.55 422.21 279.97 C 419.35 293.51 415.84 307.06 409.25 319.31 C 406.84 322.40 404.70 325.71 402.88 329.19 C 400.81 335.08 396.18 339.46 392.83 344.59 C 390.14 348.60 386.19 351.54 383.48 355.54 C 378.60 358.97 375.08 363.95 370.28 367.49 C 367.57 369.42 365.57 372.14 362.94 374.15 C 356.19 378.31 350.81 384.37 343.63 387.84 C 337.13 390.78 331.06 394.72 324.20 396.80 C 318.84 398.61 313.41 400.21 308.04 401.98 C 282.70 407.56 256.06 407.62 230.85 401.30 C 203.45 394.66 178.15 380.53 156.97 362.06 C 141.93 348.74 129.44 332.64 119.86 315.01 C 109.57 294.95 102.27 272.73 102.64 249.98 C 103.22 242.68 103.47 235.30 105.19 228.16 Z" fill="#fdd12c" opacity="1.00" stroke="#fdd12c" stroke-width="0.25"/>
<path d="M 200.62 222.38 C 200.37 214.81 205.61 206.33 213.84 206.18 C 219.31 206.72 224.32 209.88 226.82 214.84 C 229.16 212.82 231.63 210.28 235.00 210.54 C 241.25 209.86 247.09 216.21 245.46 222.41 C 230.51 222.22 215.57 222.31 200.62 222.38 Z" fill="#fafcfd" opacity="1.00" stroke="#fafcfd" stroke-width="0.25"/>
<path d="M 320.59 215.61 C 321.42 215.16 322.26 214.71 323.10 214.27 C 323.95 215.05 324.73 215.90 325.58 216.68 C 324.75 217.21 323.91 217.74 323.08 218.28 C 322.41 218.09 321.07 217.73 320.40 217.55 C 320.45 217.07 320.54 216.10 320.59 215.61 Z" fill="#f189a0" opacity="1.00" stroke="#f189a0" stroke-width="0.25"/>
<path d="M 369.33 267.05 C 370.91 266.52 371.44 267.10 370.93 268.79 C 369.35 269.30 368.81 268.72 369.33 267.05 Z" fill="#f189a0" opacity="1.00" stroke="#f189a0" stroke-width="0.25"/>
<path d="M 203.94 280.73 C 235.29 280.90 266.63 280.79 297.98 280.77 C 300.16 280.80 302.33 280.97 304.51 281.14 C 302.06 284.58 299.70 288.08 296.87 291.22 C 289.11 300.65 278.09 306.76 266.60 310.45 C 256.16 313.33 244.96 312.67 234.67 309.46 C 230.95 308.32 227.31 306.87 223.46 306.19 C 215.34 299.12 208.27 290.67 203.94 280.73 Z" fill="#22103d" opacity="1.00" stroke="#22103d" stroke-width="0.25"/>
<path d="M 304.51 281.14 C 306.27 280.49 308.17 280.54 310.03 280.55 C 318.63 280.69 327.23 280.55 335.84 280.60 C 336.97 283.75 339.71 285.81 341.84 288.27 C 348.05 295.35 355.02 301.70 361.58 308.44 C 365.89 312.77 369.95 317.35 374.49 321.46 C 374.11 322.26 373.75 323.07 373.41 323.89 C 364.32 328.12 355.21 332.47 345.46 334.98 C 345.46 334.59 345.46 333.82 345.46 333.43 C 342.46 330.47 339.34 327.64 336.12 324.92 C 333.39 322.62 330.05 321.12 327.61 318.48 C 324.03 314.66 319.71 311.67 316.01 308.00 C 312.63 304.65 308.39 302.37 304.98 299.06 C 302.33 296.38 298.75 294.60 296.87 291.22 C 299.70 288.08 302.06 284.58 304.51 281.14 Z" fill="#f45752" opacity="1.00" stroke="#f45752" stroke-width="0.25"/>
<path d="M 335.84 280.60 C 340.03 283.91 343.74 287.77 347.53 291.52 C 355.06 299.00 362.60 306.46 370.09 313.98 C 372.20 316.04 373.73 318.59 375.71 320.77 C 377.04 320.98 378.31 320.78 379.53 320.17 C 378.44 320.74 377.32 321.24 376.23 321.78 C 375.38 322.59 374.59 323.56 373.41 323.89 C 373.75 323.07 374.11 322.26 374.49 321.46 C 369.95 317.35 365.89 312.77 361.58 308.44 C 355.02 301.70 348.05 295.35 341.84 288.27 C 339.71 285.81 336.97 283.75 335.84 280.60 Z" fill="#fafcfd" opacity="1.00" stroke="#fafcfd" stroke-width="0.25"/>
<path d="M 266.60 310.45 C 278.09 306.76 289.11 300.65 296.87 291.22 C 298.75 294.60 302.33 296.38 304.98 299.06 C 308.39 302.37 312.63 304.65 316.01 308.00 C 319.71 311.67 324.03 314.66 327.61 318.48 C 330.05 321.12 333.39 322.62 336.12 324.92 C 339.34 327.64 342.46 330.47 345.46 333.43 C 345.46 333.82 345.46 334.59 345.46 334.98 C 318.85 341.77 290.40 340.15 264.42 331.49 C 249.35 325.73 235.06 317.50 223.46 306.19 C 227.31 306.87 230.95 308.32 234.67 309.46 C 244.96 312.67 256.16 313.33 266.60 310.45 Z" fill="#a83e6a" opacity="1.00" stroke="#a83e6a" stroke-width="0.25"/>
</svg>